<?xml version="1.0" encoding="UTF-8"?>
<svg id="Layer_1" xmlns="http://www.w3.org/2000/svg" version="1.1" viewBox="0 0 702.5 175.1">
  <!-- Generator: Adobe Illustrator 29.1.0, SVG Export Plug-In . SVG Version: 2.1.0 Build 142)  -->
  <defs>
    <style>
      .st0 {
        fill: #fff;
      }
    </style>
  </defs>
  <g>
    <path class="st0" d="M291.9,53.4h15.5l-11.9,56.9h-26.1l-8.8-55.9h-.2l-8.7,55.9h-26.1l-11.9-56.9h16l9.9,55.9h.2l8.7-55.9h24.6l8.6,55.9h.2l10-55.9Z"/>
    <path class="st0" d="M370.1,83.5h-41.5c.6,10.4,5.6,16.6,13.6,16.6s11.9-3.9,13.4-10.1h14.5c-2,13.5-12.5,21.4-27.9,21.4s-28.1-11-28.1-29.6,10.4-29.6,28.1-29.6,27.9,10.9,27.9,29.6v1.7ZM328.7,78.4h26.8c-.9-9.5-5.8-15-13.3-15s-12.5,5.4-13.5,15Z"/>
    <path class="st0" d="M471.7,75v35.3h-15v-34.6c0-7.4-4-11.7-10.7-11.7s-11.9,5.6-11.9,14.9v31.4h-15v-34.6c0-7.4-3.9-11.7-10.5-11.7s-12,5.6-12,14.9v31.4h-15v-56.9h15v19.7h.2c0-13.2,6.9-20.9,18.4-20.9s18.9,8.1,18.9,20.9h.2c0-13.2,6.6-20.9,17.8-20.9s19.5,8.4,19.5,22.8h.1Z"/>
    <path class="st0" d="M526.2,53.4h15v56.9h-15v-19.6h-.2c0,13-7.6,20.8-20.3,20.8s-22.7-11-22.7-29.6,8.4-29.6,22.7-29.6,20.3,7.7,20.3,20.6h.2v-19.5ZM527,81.8c0-10.5-5.3-17.8-14.4-17.8s-14.4,6.7-14.4,17.8,5.3,17.7,14.4,17.7,14.4-7.3,14.4-17.7Z"/>
    <path class="st0" d="M587.7,80.5l26.8,29.8h-18.4l-25-29.1h-.2v29.1h-15V23h15v57.2h.2l23-26.8h17.7l-24.2,27.1h.1Z"/>
    <path class="st0" d="M621.4,42.5v-14.2h15v14.2h-15ZM621.4,110.3v-56.9h15v56.9h-15Z"/>
    <path class="st0" d="M687,63.7h-17.7v27.4c0,5.3,3.4,8.4,9.1,8.4s5.6-.7,7.6-1.8v11.1c-3.4,1.6-8.1,2.6-12.4,2.6-12.1,0-19.3-6.8-19.3-18.4v-29.4h-8.2v-10.3h9.1v-19.1h15v4.8c0,7.3-5.4,12.4-14.5,14.1v.2h31.3v10.3h0Z"/>
  </g>
  <path class="st0" d="M97.3,56.7c0-9.3-7.5-16.8-16.8-16.8h0c-9.3,0-16.8,7.5-16.8,16.8v49.8c0,9.3,7.5,16.8,16.8,16.8h0c9.3,0,16.8-7.5,16.8-16.8v-3.7c0-9.1,7.4-16.4,16.5-16.6-12.8-15.9-15.3-24-16.3-27.9-.2-.6-.3-1.6-.3-1.6h.1Z"/>
  <path class="st0" d="M150.8,22.1c-9.3,0-16.8,7.5-16.8,16.8v25.9h0v4.9c0,9.3-7.5,16.8-16.8,16.8s-2.4,0-3.5-.4c3.1,4.5,7.6,10.4,14,17.9,0,0,0,.2.2.2,3.6,4.2,6.1,9.4,6.1,14.7v8.8h0v1.1c0,9.3,7.5,16.8,16.8,16.8s16.8-7.5,16.8-16.8V38.9c0-9.3-7.5-16.8-16.8-16.8Z"/>
  <rect class="st0" x="17.1" y="12" width="34.7" height="148.4" rx="17.3" ry="17.3"/>
</svg>